<svg width="710" height="171" viewBox="0 0 710 171" fill="none" xmlns="http://www.w3.org/2000/svg">
<path d="M19.9585 162.708H5.91152V169.726H0.686523V152.918C0.686523 143.887 5.19652 139.795 12.8525 139.795C20.5085 139.795 25.1725 143.942 25.1725 152.918V169.682H19.9585V162.708ZM5.91152 158.616H19.9585V153.061C19.9585 146.791 17.0325 144.657 12.9405 144.657C8.84852 144.657 5.92252 147.077 5.92252 153.017V158.66L5.91152 158.616Z" fill="#0072BC"/>
<path d="M40.5725 140.345H51.5725C60.6805 140.345 67.2915 146.483 67.2915 155.019C67.2915 163.555 60.5815 169.726 51.5725 169.726H40.5725V140.345ZM45.7975 145.108V164.908H51.6935C57.1616 164.908 61.5935 160.476 61.5935 155.008C61.5935 149.54 57.1616 145.108 51.6935 145.108H45.7535H45.7975Z" fill="#0072BC"/>
<path d="M90.7654 160.409L99.7964 140.345H105.23L91.6014 170.1H89.8414L76.2124 140.345H81.7674L90.7654 160.409Z" fill="#0072BC"/>
<path d="M117.231 140.345H136.327V145.108H122.412V153.347H135.029V157.945H122.412V165.018H136.327V169.781H117.231V140.345Z" fill="#0072BC"/>
<path d="M150.881 140.18H152.509L170.692 159.111V140.345H175.873V169.935H174.498L156.073 151.51V169.737H150.892V140.18H150.881Z" fill="#0072BC"/>
<path d="M187.874 140.345H212.569V145.108H202.911V169.726H197.686V145.108H187.863V140.345H187.874Z" fill="#0072BC"/>
<path d="M224.272 140.345H229.453V157.56C229.453 163.159 232.005 165.502 236.438 165.502C240.871 165.502 243.588 163.159 243.588 157.516V140.345H248.769V157.56C248.769 166.36 243.797 170.265 236.438 170.265C229.079 170.265 224.272 166.338 224.272 157.571V140.345Z" fill="#0072BC"/>
<path d="M264.071 140.345H273.476C281.286 140.345 285.224 144.646 285.224 150.795C285.249 154.669 283.133 158.24 279.724 160.079C281.924 162.004 282.562 165.052 286.082 165.052H287.248V169.649C286.324 169.829 285.384 169.915 284.443 169.903C277.128 169.903 277.546 163.171 273.993 161.169H272.442H269.219V169.694H264.038V140.345H264.071ZM269.252 145.108V156.603H273.102C277.953 156.603 279.625 154.007 279.625 150.795C279.625 147.583 277.997 145.108 273.102 145.108H269.252Z" fill="#0072BC"/>
<path d="M300.558 140.345H319.654V145.108H305.739V153.347H318.356V157.945H305.739V165.018H319.654V169.781H300.558V140.345Z" fill="#0072BC"/>
<path d="M362.719 170.233C359.321 170.174 356.001 169.206 353.104 167.428L354.897 162.753C357.251 164.378 360.025 165.291 362.884 165.382C366.349 165.382 367.944 163.665 367.944 161.784C367.944 159.903 366.843 158.649 361.552 156.68C355.821 154.59 353.853 151.874 353.853 148.365C353.853 143.965 357.45 139.84 363.753 139.84C366.578 139.835 369.361 140.522 371.859 141.842L370.188 146.44C368.174 145.271 365.913 144.595 363.587 144.471C360.496 144.471 359.078 146.187 359.078 148.233C359.078 150.114 360.662 151.28 364.809 152.787C371.409 155.339 373.246 157.924 373.246 161.774C373.246 167.01 369.275 170.233 362.719 170.233Z" fill="#ED1C24"/>
<path d="M383.035 140.345H407.73V145.108H398.072V169.726H392.847V145.108H383.024V140.345H383.035Z" fill="#ED1C24"/>
<path d="M438.124 162.708H424.077V169.726H418.852V152.918C418.852 143.887 423.362 139.795 431.018 139.795C438.674 139.795 443.349 143.887 443.349 152.918V169.682H438.124V162.708ZM424.077 158.616H438.124V153.061C438.124 146.791 435.198 144.657 431.106 144.657C427.014 144.657 424.088 147.077 424.088 153.017V158.66L424.077 158.616Z" fill="#ED1C24"/>
<path d="M458.694 140.345H468.099C475.92 140.345 479.847 144.646 479.847 150.795C479.869 154.668 477.754 158.238 474.347 160.079C476.547 162.004 477.185 165.052 480.705 165.052H481.871V169.649C480.95 169.829 480.014 169.915 479.077 169.903C471.762 169.903 472.18 163.171 468.627 161.169H467.076H463.864V169.694H458.683V140.345H458.694ZM463.875 145.108V156.603H467.725C472.576 156.603 474.248 154.007 474.248 150.795C474.248 147.583 472.62 145.108 467.725 145.108H463.875Z" fill="#ED1C24"/>
<path d="M490.704 140.345H515.399V145.108H505.741V169.726H500.516V145.108H490.693V140.345H490.704Z" fill="#ED1C24"/>
<path d="M534.846 170.233C531.449 170.174 528.129 169.206 525.232 167.428L527.025 162.753C529.379 164.378 532.153 165.291 535.011 165.382C538.476 165.382 540.071 163.665 540.071 161.784C540.071 159.903 538.971 158.649 533.68 156.68C527.949 154.59 525.98 151.874 525.98 148.365C525.98 143.965 529.577 139.84 535.88 139.84C538.706 139.835 541.489 140.522 543.987 141.842L542.315 146.44C540.302 145.271 538.04 144.595 535.715 144.471C532.624 144.471 531.205 146.187 531.205 148.233C531.205 150.114 532.789 151.28 536.936 152.787C543.536 155.339 545.373 157.924 545.373 161.774C545.384 167.01 541.413 170.233 534.846 170.233Z" fill="#ED1C24"/>
<path d="M599.471 158.154H585.172V169.726H579.99V140.345H585.172V153.545H599.471V140.345H604.653V169.682H599.471V158.154Z" fill="#ED1C24"/>
<path d="M620.372 140.345H639.468V145.108H625.553V153.347H638.17V157.945H625.553V165.018H639.468V169.781H620.372V140.345Z" fill="#ED1C24"/>
<path d="M654.021 140.345H663.425C671.246 140.345 675.174 144.646 675.174 150.795C675.196 154.668 673.081 158.238 669.674 160.079C671.874 162.004 672.511 165.052 676.031 165.052H677.198V169.649C676.277 169.829 675.341 169.915 674.404 169.903C667.089 169.903 667.506 163.171 663.953 161.169H662.403H659.19V169.694H654.01V140.345H654.021ZM659.201 145.108V156.603H663.052C667.903 156.603 669.575 154.007 669.575 150.795C669.575 147.583 667.947 145.108 663.052 145.108H659.201Z" fill="#ED1C24"/>
<path d="M690.508 140.345H709.604V145.108H695.689V153.347H708.273V157.945H695.689V165.018H709.604V169.781H690.508V140.345Z" fill="#ED1C24"/>
<path d="M76.019 95.3299C77.109 96.9959 77.695 98.9399 77.709 100.93C77.708 103.655 76.495 106.239 74.399 107.98C72.409 109.886 69.765 110.96 67.009 110.98C63.502 110.98 60.732 109.343 58.699 106.07L35.469 68.1109C32.549 71.1809 27.979 75.5999 21.709 81.3999V100.671C21.709 103.961 20.709 106.49 18.709 108.25C16.703 110.019 14.103 110.966 11.429 110.9C8.79003 110.928 6.23302 109.989 4.23902 108.26C2.16902 106.55 1.16802 104.04 1.16802 100.74V14.7399C1.02102 11.9049 2.15103 9.15386 4.24803 7.23986C6.22003 5.46786 8.78703 4.49986 11.439 4.52986C14.124 4.46286 16.731 5.43386 18.719 7.23986C20.764 9.17086 21.86 11.9009 21.719 14.7099V53.3999L42.719 32.6899C44.546 30.6919 47.112 29.5279 49.819 29.4699C52.577 29.5059 55.201 30.6689 57.079 32.6899C59.11 34.5799 60.272 37.2249 60.289 39.9999C60.217 42.7189 59.031 45.2899 57.009 47.1099C54.784 49.3189 52.691 51.6559 50.739 54.1099L76.019 95.3299Z" fill="#ED1C24"/>
<path d="M105.96 10.3699C106.004 13.0679 104.916 15.6609 102.96 17.5199C98.9041 21.4459 92.4651 21.4459 88.4091 17.5199C86.4481 15.6639 85.3591 13.0689 85.4091 10.3699C85.3721 7.64691 86.4571 5.02891 88.4091 3.12991C92.3971 -0.888093 98.8881 -0.912093 102.906 3.07591C102.924 3.09391 102.942 3.11191 102.96 3.12991C104.903 5.03491 105.987 7.64891 105.96 10.3699ZM105.96 100.73C105.96 104.023 104.933 106.543 102.88 108.29C100.891 110.027 98.3311 110.971 95.6901 110.94C93.1121 111.034 90.5981 110.115 88.6891 108.38C86.4711 106.476 85.2661 103.648 85.4291 100.73V37.1099C85.2671 34.1859 86.4711 31.3529 88.6891 29.4399C90.6001 27.7099 93.1141 26.7979 95.6901 26.8999C98.3301 26.8619 100.892 27.8019 102.88 29.5399C104.88 31.2999 105.96 33.8099 105.96 37.1099V100.71V100.73Z" fill="#ED1C24"/>
<path d="M189.899 100.409C190.038 103.218 188.942 105.946 186.899 107.879C184.935 109.687 182.348 110.666 179.679 110.61C176.558 110.742 173.569 109.337 171.679 106.849C166.883 109.324 161.565 110.618 156.168 110.62C143.835 110.62 134.108 106.443 126.988 98.09C120.535 90.657 117.312 81.36 117.319 70.2C117.319 57.693 121.152 46.93 128.819 37.91C135.208 29.926 144.945 25.366 155.168 25.57C161.375 25.57 166.111 27.377 169.378 30.99V17.92C169.242 15.099 170.371 12.364 172.458 10.46C174.43 8.68696 176.997 7.71896 179.649 7.74996C182.33 7.68696 184.932 8.65696 186.918 10.46C188.965 12.386 190.062 15.113 189.918 17.92V100.409H189.899ZM169.369 77.769V56.9C169.369 49.927 165.145 46.443 156.698 46.45C150.965 46.45 146.858 47.962 144.378 50.989C139.758 56.262 137.448 62.833 137.448 70.7C137.448 76.313 138.915 80.803 141.848 84.17C145.101 88.21 149.828 90.2299 156.028 90.2299C158.175 90.2299 160.708 89.2299 163.628 87.2299C167.448 84.7499 169.362 81.596 169.369 77.769Z" fill="#ED1C24"/>
<path d="M273.899 100.411C274.038 103.22 272.942 105.948 270.899 107.881C268.935 109.689 266.348 110.667 263.679 110.611C260.558 110.743 257.569 109.339 255.679 106.851C250.883 109.326 245.566 110.618 240.169 110.62C227.836 110.62 218.109 106.443 210.989 98.0899C204.536 90.6569 201.312 81.3599 201.319 70.1999C201.319 57.6929 205.152 46.9309 212.819 37.9109C219.208 29.9269 228.946 25.3669 239.169 25.5709C245.376 25.5709 250.112 27.3779 253.379 30.9909V17.9199C253.243 15.0989 254.372 12.3649 256.459 10.4609C258.431 8.68793 260.997 7.71993 263.649 7.75093C266.33 7.68793 268.933 8.65793 270.919 10.4609C272.966 12.3869 274.063 15.1129 273.919 17.9199V100.411H273.899ZM254.169 77.7909V56.9209C254.169 49.9479 249.946 46.4639 241.499 46.4709C235.759 46.4709 231.656 47.9839 229.189 51.0109C224.569 56.2839 222.259 62.8539 222.259 70.7209C222.259 76.3339 223.726 80.8239 226.659 84.1909C229.919 88.2309 234.646 90.2509 240.839 90.2509C242.969 90.2509 245.509 89.2509 248.439 87.2509C252.252 84.7709 254.162 81.6179 254.169 77.7909Z" fill="#ED1C24"/>
<path d="M310.298 10.3709C310.347 13.0699 309.258 15.6639 307.298 17.5199C303.24 21.4399 296.807 21.4399 292.749 17.5199C290.793 15.6609 289.705 13.0689 289.749 10.3709C289.722 7.64991 290.806 5.03491 292.749 3.12991C296.737 -0.888093 303.226 -0.912093 307.244 3.07591C307.262 3.09391 307.28 3.11191 307.298 3.12991C309.247 5.03091 310.332 7.64891 310.298 10.3709ZM310.298 100.731C310.298 104.021 309.298 106.54 307.218 108.29C305.232 110.027 302.676 110.97 300.038 110.94C297.46 111.031 294.949 110.113 293.038 108.38C290.825 106.473 289.624 103.647 289.788 100.731V37.1109C289.625 34.1889 290.825 31.3559 293.038 29.4399C294.951 27.7139 297.463 26.8019 300.038 26.8999C302.661 26.8799 305.199 27.8279 307.168 29.5609C309.218 31.3209 310.249 33.8299 310.249 37.1299V100.731H310.298Z" fill="#ED1C24"/>
<path d="M461.419 100.71C461.419 104 460.419 106.53 458.349 108.29C454.199 111.822 448.099 111.822 443.949 108.29C441.902 106.543 440.876 104.02 440.869 100.72V57.17C440.869 52.283 438.516 48.88 433.809 46.96C430.329 45.58 425.289 45.03 418.679 45.25C402.586 45.423 397.816 45.533 404.369 45.58V100.83C404.529 103.65 403.395 106.389 401.289 108.27C397.116 111.802 391.002 111.802 386.829 108.27C384.829 106.523 383.829 104 383.829 100.7V57.17C383.829 52.283 381.466 48.88 376.739 46.96C373.249 45.58 368.179 45.03 361.539 45.25C348.887 45.386 343.179 45.483 344.413 45.541C344.575 45.549 344.857 45.556 345.258 45.562C345.698 45.569 346.281 45.575 347.009 45.58V100.66C347.009 103.97 346.009 106.52 344.009 108.28C342.007 110.05 339.411 111 336.739 110.94C334.095 110.972 331.531 110.029 329.539 108.29C327.539 106.53 326.459 104 326.459 100.71V25.39L429.459 25.22C438.859 25.22 446.526 28.147 452.459 34C458.392 39.853 461.379 47.557 461.419 57.11V100.71Z" fill="#0072BC"/>
<path d="M558.169 68.67C558.169 81.463 554.292 91.9 546.539 99.98C538.786 108.06 528.452 112.107 515.539 112.12C502.412 112.12 491.946 108.043 484.139 99.89C476.826 91.97 473.169 81.563 473.169 68.67C473.169 56.457 477.169 46.159 485.169 37.779C493.169 29.399 503.322 25.212 515.629 25.219C528.189 25.219 538.429 29.38 546.349 37.7C554.269 46.02 558.209 56.343 558.169 68.67ZM537.619 68.67C537.619 61.777 535.599 56.199 531.559 51.939C527.519 47.679 522.186 45.559 515.559 45.579C509.63 45.383 503.901 47.736 499.819 52.04C495.719 56.333 493.669 61.877 493.669 68.67C493.669 84.063 500.966 91.757 515.559 91.75C522.746 91.75 528.222 89.717 531.989 85.65C535.756 81.583 537.649 75.923 537.669 68.67H537.619Z" fill="#0072BC"/>
<path d="M608.989 26.5699C611.782 26.4369 614.492 27.5329 616.408 29.5699C618.201 31.5329 619.169 34.1129 619.109 36.7709C619.141 39.4059 618.175 41.9559 616.408 43.9109C614.518 45.9909 611.796 47.1139 608.989 46.9709H594.489V83.6108C594.489 87.1108 594.669 89.2608 594.989 90.0508C595.669 91.1908 597.398 91.7509 600.208 91.7509C602.626 91.7069 605.035 91.4259 607.398 90.9109C610.353 90.4349 613.36 91.3749 615.518 93.4499C617.787 95.3399 619.105 98.1369 619.118 101.09C619.118 108.463 612.748 112.13 600.008 112.09C582.675 112.09 574.008 102.588 574.008 83.5808V46.7799C571.449 46.6879 569.048 45.5178 567.398 43.5598C565.81 41.6548 564.965 39.2399 565.018 36.7599C565.018 33.5929 568.018 30.1969 574.018 26.5699V18.4409C573.875 15.6129 575.004 12.8679 577.098 10.9609C579.071 9.19085 581.638 8.22685 584.288 8.25985C586.971 8.19285 589.578 9.15985 591.568 10.9609C593.613 12.8959 594.71 15.6289 594.568 18.4409V26.5699H609.068H608.989Z" fill="#0072BC"/>
<path d="M709.829 68.67C709.829 81.463 705.952 91.9 698.199 99.98C690.446 108.06 680.112 112.107 667.199 112.12C654.072 112.12 643.602 108.043 635.789 99.89C628.456 91.97 624.789 81.563 624.789 68.67C624.789 66.827 624.88 65.026 625.062 63.27C626.087 53.391 629.996 44.894 636.789 37.779C644.789 29.399 654.946 25.212 667.259 25.219C679.819 25.219 690.059 29.38 697.979 37.7C702.764 42.727 706.1 48.485 707.987 54.975C709.223 59.226 709.837 63.791 709.829 68.67ZM689.279 68.669C689.279 61.776 687.256 56.199 683.209 51.939C679.162 47.679 673.829 45.559 667.209 45.579C663.563 45.459 659.994 46.301 656.835 47.967C654.854 49.012 653.034 50.381 651.459 52.04C647.366 56.333 645.316 61.876 645.309 68.669C645.309 84.062 652.609 91.757 667.209 91.75C668.772 91.75 670.255 91.653 671.656 91.461C676.696 90.769 680.687 88.832 683.629 85.65C687.389 81.583 689.272 75.922 689.279 68.669Z" fill="#0072BC"/>
</svg>
