<svg width="181" height="28" viewBox="0 0 181 28" fill="none" xmlns="http://www.w3.org/2000/svg">
<path d="M0 27.5165V0.542969H6.27573C10.4998 0.542969 13.2756 2.71533 13.2756 8.08589C13.2756 10.6807 12.1894 12.672 10.5601 13.4565C12.5514 14.3616 13.8187 16.4736 13.8187 19.6115C13.8187 24.982 11.1032 27.5165 6.63778 27.5165H0ZM5.73263 11.6462C7.84464 11.6462 8.7498 10.6203 8.7498 8.14624C8.7498 5.61182 7.7843 4.52564 5.73263 4.52564H4.52576V11.6462H5.73263ZM4.46543 15.6892V23.5338H6.15504C8.26706 23.5338 9.2929 22.3873 9.2929 19.5511C9.2929 16.8357 8.26706 15.6892 6.27573 15.6892H4.46543Z" fill="#E30613"/>
<path d="M76.9987 4.52558H72.1109V27.5164H67.6455V0.542908H81.4641V27.5164H76.9987V4.52558Z" fill="#E30613"/>
<path d="M101.015 8.56942C101.076 3.86263 103.61 0.121338 108.438 0.121338C112.782 0.121338 115.558 3.1385 115.558 8.08666V27.5173C115.558 27.5173 109.765 27.5173 107.472 27.5173C104.033 27.5173 101.317 25.8276 101.317 20.5174V19.8536C101.317 14.7848 103.731 11.8883 109.041 11.8883H111.093V8.56942C111.093 5.61259 109.946 3.98332 108.317 4.04366C106.507 4.10401 105.481 5.61259 105.481 8.56942H101.015ZM111.032 23.957V15.7503H108.86C106.507 15.7503 105.481 17.1382 105.481 19.7933V20.4571C105.481 22.1467 106.265 23.957 108.317 23.957C109.765 23.957 110.248 23.957 111.032 23.957Z" fill="#E30613"/>
<path d="M166.065 8.56942C166.125 3.86263 168.66 0.121338 173.487 0.121338C177.832 0.121338 180.608 3.1385 180.608 8.08666V27.5173C180.608 27.5173 174.815 27.5173 172.522 27.5173C169.082 27.5173 166.367 25.8276 166.367 20.5174V19.8536C166.367 14.7848 168.78 11.8883 174.091 11.8883H176.142V8.56942C176.142 5.61259 174.996 3.98332 173.366 4.04366C171.556 4.10401 170.53 5.61259 170.53 8.56942H166.065ZM176.082 23.957V15.7503H173.91C171.556 15.7503 170.53 17.1382 170.53 19.7933V20.4571C170.53 22.1467 171.315 23.957 173.366 23.957C174.815 23.957 175.297 23.957 176.082 23.957Z" fill="#E30613"/>
<path d="M128.531 15.6892H123.523V27.5165H119.057V0.542969H123.523V11.7065H128.531V0.542969H132.997V27.5165H128.531V15.6892Z" fill="#E30613"/>
<path d="M151.402 0.542969H165.583V4.52564H160.695V27.5165H156.229V4.52564H151.342V0.542969H151.402Z" fill="#E30613"/>
<path d="M26.3094 19.7323H30.7748C30.5335 24.7408 28.1801 27.939 23.594 27.939C18.5251 27.939 16.1114 24.8012 16.2321 18.8272V9.17221C16.2321 3.43958 18.3441 0 23.3526 0C28.3611 0 30.8352 3.19821 30.8352 8.93084V15.6289H20.6975V17.8013C20.6975 21.8443 21.2406 23.8357 23.5336 23.896C25.2232 24.0167 26.0077 22.4478 26.3094 19.7323ZM20.5768 11.4653H26.2491V9.77564C26.2491 5.73263 25.4646 4.10336 23.3526 4.10336C21.2406 4.10336 20.5768 5.73263 20.5768 9.77564V11.4653Z" fill="#E30613"/>
<path d="M146.393 20.1547H150.858C150.617 25.1632 148.264 27.939 143.677 27.939C138.609 27.939 136.195 24.8012 136.316 18.8272V9.17221C136.316 3.43958 138.428 0 143.436 0C148.445 0 150.919 3.19821 150.919 8.93084V15.6289H140.781V17.8013C140.781 21.8443 141.324 23.8357 143.617 23.896C145.367 24.0167 146.152 22.8702 146.393 20.1547ZM140.721 11.4653H146.393V9.77564C146.393 5.73263 145.608 4.10336 143.496 4.10336C141.384 4.10336 140.721 5.73263 140.721 9.77564V11.4653Z" fill="#E30613"/>
<path d="M94.0751 0.542969L99.9888 27.5165H95.463L91.8424 8.99104L88.2218 27.5165H83.696L89.6097 0.542969H94.0751Z" fill="#E30613"/>
<path d="M42.4208 0.542969L48.3345 27.5165H43.8087L40.1881 8.99104L36.5675 27.5165H32.0417L37.9554 0.542969H42.4208Z" fill="#E30613"/>
<path d="M64.5072 19.4916C64.5072 25.2242 61.6107 28 57.2056 28C52.8005 28 49.9041 25.2242 49.9041 19.4916V8.62977C49.9041 2.89714 52.8005 0.121338 57.2056 0.121338C61.6107 0.121338 64.5072 2.89714 64.5072 8.62977V19.4916ZM60.0417 9.17286C60.0417 5.61259 59.1366 4.10401 57.2056 4.10401C55.2746 4.10401 54.3695 5.67294 54.3695 9.17286V18.8882C54.3695 22.4484 55.2746 23.957 57.2056 23.957C59.1366 23.957 60.0417 22.3881 60.0417 18.8882V9.17286Z" fill="#E30613"/>
</svg>
