<svg width="120" height="35" viewBox="0 0 120 35" fill="none" xmlns="http://www.w3.org/2000/svg">
<path fill-rule="evenodd" clip-rule="evenodd" d="M69.12 0C66.399 0 63.68 0 60.96 0C60.638 1.357 60.082 2.482 59.76 3.84C62.48 3.84 65.2 3.84 67.92 3.84C68.276 2.536 68.69 1.25 69.12 0Z" fill="white"/>
<path fill-rule="evenodd" clip-rule="evenodd" d="M87.3599 0C83.9759 8.42 81.6919 17.939 78.5689 26.62H73.4449C75.3399 20.393 77.1679 14.099 79.3539 8.161H83.2529V7.92C83.2609 7.92 83.2699 7.92 83.2779 7.92C83.5359 7.059 83.8819 6.284 83.9979 5.28C79.9979 5.28 75.9979 5.28 71.9979 5.28C69.4419 13.264 66.9439 21.307 64.3899 29.291L64.2849 29.495L64.3269 29.492C64.3239 29.501 64.3209 29.511 64.3179 29.52C71.5189 29.52 78.7179 29.52 85.9189 29.52C88.7839 19.505 92.2289 10.07 95.0389 0C92.4789 0 89.9199 0 87.3599 0Z" fill="white"/>
<path fill-rule="evenodd" clip-rule="evenodd" d="M9.6 5.28005C6.068 14.7881 3.192 25.1611 0 34.8001C2.72 34.8001 5.44 34.8001 8.16 34.8001C11.056 25.9631 13.69 16.8641 16.719 8.16105H21.84C19.861 14.3071 18.04 20.6081 15.928 26.6201H11.911L11.036 29.4951L11.051 29.4931C11.047 29.5011 11.044 29.5111 11.04 29.5191C15.12 29.5191 19.2 29.5191 23.28 29.5191C25.782 21.3811 28.298 13.2571 30.96 5.27905C23.84 5.28005 16.72 5.28005 9.6 5.28005Z" fill="white"/>
<path fill-rule="evenodd" clip-rule="evenodd" d="M53.7601 14.64C54.6611 11.461 55.7391 8.45903 56.6401 5.28003C49.4401 5.28003 42.2401 5.28003 35.0401 5.28003C32.7921 13.592 29.9271 21.287 27.6001 29.52C30.3201 29.52 33.0401 29.52 35.7601 29.52C37.9131 22.263 40.0001 14.94 42.6321 8.16103H47.5201C47.0851 10.526 46.1961 12.436 45.6001 14.64C48.3201 14.64 51.0401 14.64 53.7601 14.64Z" fill="white"/>
<path fill-rule="evenodd" clip-rule="evenodd" d="M59.5201 5.28003C56.4951 12.975 54.3201 21.521 51.6001 29.52C54.3201 29.52 57.0401 29.52 59.7601 29.52C62.2621 21.382 64.7791 13.258 67.4411 5.28003C64.8001 5.28003 62.1591 5.28003 59.5201 5.28003Z" fill="white"/>
<path fill-rule="evenodd" clip-rule="evenodd" d="M114.24 24C116.193 17.62 118.148 11.589 120 5.28003C112.8 5.28003 105.6 5.28003 98.399 5.28003C96.152 13.592 93.287 21.287 90.96 29.52C97.936 29.52 104.911 29.52 111.885 29.52L112.458 29.537L113.49 26.564L113.505 26.559H113.492L113.494 26.553L113.448 26.559H99.869C102.052 20.572 103.582 13.931 105.985 8.16303H110.88C109.571 12.694 108.027 17.33 106.56 21.362C105.676 21.362 104.792 21.362 103.908 21.362L102.724 21.35L102.72 21.362C102.72 21.362 102.72 21.362 102.72 21.363L101.88 23.991H102.003C102.003 23.995 102.001 23.998 102.001 24.002C106.08 24 110.16 24 114.24 24Z" fill="white"/>
</svg>
